<mxfile host="app.diagrams.net" agent="Mozilla/5.0 (X11; Linux x86_64) AppleWebKit/537.36 (KHTML, like Gecko) Chrome/125.0.0.0 Safari/537.36" version="28.0.7" pages="2">
  <diagram name="Page-1" id="IzHbQPwucHEN2Smr9ftJ">
    <mxGraphModel grid="1" page="1" gridSize="10" guides="1" tooltips="1" connect="1" arrows="1" fold="1" pageScale="1" pageWidth="850" pageHeight="1100" math="0" shadow="0">
      <root>
        <mxCell id="0" />
        <mxCell id="1" parent="0" />
        <mxCell id="v-3bKxrAl6lYXj-cVEc9-1" value="Contact" style="swimlane;fontStyle=1;align=center;verticalAlign=top;childLayout=stackLayout;horizontal=1;startSize=26;horizontalStack=0;resizeParent=1;resizeParentMax=0;resizeLast=0;collapsible=1;marginBottom=0;whiteSpace=wrap;html=1;fillColor=#008a00;fontColor=#ffffff;strokeColor=#005700;" vertex="1" parent="1">
          <mxGeometry x="50" y="250" width="280" height="340" as="geometry">
            <mxRectangle x="30" y="80" width="100" height="30" as="alternateBounds" />
          </mxGeometry>
        </mxCell>
        <mxCell id="v-3bKxrAl6lYXj-cVEc9-2" value="- first_name : string&amp;nbsp;&lt;div&gt;- phone_number : string&lt;/div&gt;&lt;div&gt;- last_name : string&lt;/div&gt;&lt;div&gt;- nickname : string&lt;/div&gt;&lt;div&gt;-darkest_secret : string&lt;/div&gt;&lt;div&gt;&lt;br&gt;&lt;/div&gt;&lt;div&gt;&lt;br&gt;&lt;/div&gt;" style="text;align=left;verticalAlign=top;spacingLeft=4;spacingRight=4;overflow=hidden;rotatable=0;points=[[0,0.5],[1,0.5]];portConstraint=eastwest;whiteSpace=wrap;html=1;fillColor=#eeeeee;strokeColor=#36393d;" vertex="1" parent="v-3bKxrAl6lYXj-cVEc9-1">
          <mxGeometry y="26" width="280" height="94" as="geometry" />
        </mxCell>
        <mxCell id="v-3bKxrAl6lYXj-cVEc9-3" value="" style="line;strokeWidth=1;fillColor=none;align=left;verticalAlign=middle;spacingTop=-1;spacingLeft=3;spacingRight=3;rotatable=0;labelPosition=right;points=[];portConstraint=eastwest;strokeColor=inherit;" vertex="1" parent="v-3bKxrAl6lYXj-cVEc9-1">
          <mxGeometry y="120" width="280" height="8" as="geometry" />
        </mxCell>
        <mxCell id="v-3bKxrAl6lYXj-cVEc9-4" value="&lt;div&gt;+&amp;nbsp; Contact()&lt;/div&gt;&lt;div&gt;+ ~Contact()&lt;/div&gt;+ set_name( string ) :&amp;nbsp;void&amp;nbsp;&lt;div&gt;+&lt;span style=&quot;background-color: transparent;&quot;&gt;set_phone( string ) : void&amp;nbsp;&lt;/span&gt;&lt;/div&gt;&lt;div&gt;+&lt;span style=&quot;background-color: transparent;&quot;&gt;set_last_name( string ) : void&amp;nbsp;&lt;/span&gt;&lt;/div&gt;&lt;div&gt;+&lt;span style=&quot;background-color: transparent;&quot;&gt;set_nickname( string ) : void&lt;/span&gt;&lt;/div&gt;&lt;div&gt;&lt;span style=&quot;background-color: transparent;&quot;&gt;+&lt;/span&gt;&lt;span style=&quot;background-color: transparent;&quot;&gt;set_secret( string ) : void&amp;nbsp;&lt;/span&gt;&lt;span style=&quot;background-color: transparent; color: light-dark(rgb(0, 0, 0), rgb(255, 255, 255));&quot;&gt;&amp;nbsp;&lt;/span&gt;&lt;/div&gt;&lt;div&gt;&lt;span style=&quot;background-color: transparent; color: light-dark(rgb(0, 0, 0), rgb(255, 255, 255));&quot;&gt;&lt;br&gt;&lt;/span&gt;&lt;/div&gt;&lt;div&gt;+get_name(void): string&lt;/div&gt;&lt;div&gt;+get_phone(void): string&lt;br&gt;&lt;/div&gt;&lt;div&gt;+get_last_name(void): string&lt;br&gt;&lt;/div&gt;&lt;div&gt;+get_nickname(void): string&lt;br&gt;&lt;/div&gt;&lt;div&gt;+get_secret(void): string&lt;/div&gt;&lt;div&gt;&lt;br&gt;&lt;/div&gt;&lt;div&gt;&lt;span style=&quot;background-color: transparent;&quot;&gt;&lt;br&gt;&lt;/span&gt;&lt;/div&gt;" style="text;strokeColor=#36393d;fillColor=#eeeeee;align=left;verticalAlign=top;spacingLeft=4;spacingRight=4;overflow=hidden;rotatable=0;points=[[0,0.5],[1,0.5]];portConstraint=eastwest;whiteSpace=wrap;html=1;" vertex="1" parent="v-3bKxrAl6lYXj-cVEc9-1">
          <mxGeometry y="128" width="280" height="212" as="geometry" />
        </mxCell>
        <mxCell id="v-3bKxrAl6lYXj-cVEc9-21" value="&lt;span style=&quot;white-space: pre;&quot;&gt;P&lt;/span&gt;hone_book" style="swimlane;fontStyle=1;align=center;verticalAlign=top;childLayout=stackLayout;horizontal=1;startSize=26;horizontalStack=0;resizeParent=1;resizeParentMax=0;resizeLast=0;collapsible=1;marginBottom=0;whiteSpace=wrap;html=1;fillColor=#6a00ff;fontColor=#ffffff;strokeColor=#3700CC;" vertex="1" parent="1">
          <mxGeometry x="490" y="290" width="280" height="260" as="geometry" />
        </mxCell>
        <mxCell id="v-3bKxrAl6lYXj-cVEc9-22" value="&lt;div&gt;&lt;br&gt;&lt;/div&gt;-&amp;nbsp; _max_size : size_t&lt;div&gt;-&amp;nbsp; _index :&amp;nbsp; size_t&lt;/div&gt;&lt;div&gt;&lt;br&gt;&lt;/div&gt;&lt;div&gt;- _contacts[8]: Contact&amp;nbsp;&lt;br&gt;&lt;/div&gt;" style="text;strokeColor=#36393d;fillColor=#eeeeee;align=left;verticalAlign=top;spacingLeft=4;spacingRight=4;overflow=hidden;rotatable=0;points=[[0,0.5],[1,0.5]];portConstraint=eastwest;whiteSpace=wrap;html=1;" vertex="1" parent="v-3bKxrAl6lYXj-cVEc9-21">
          <mxGeometry y="26" width="280" height="84" as="geometry" />
        </mxCell>
        <mxCell id="v-3bKxrAl6lYXj-cVEc9-23" value="" style="line;strokeWidth=1;fillColor=none;align=left;verticalAlign=middle;spacingTop=-1;spacingLeft=3;spacingRight=3;rotatable=0;labelPosition=right;points=[];portConstraint=eastwest;strokeColor=inherit;" vertex="1" parent="v-3bKxrAl6lYXj-cVEc9-21">
          <mxGeometry y="110" width="280" height="8" as="geometry" />
        </mxCell>
        <mxCell id="v-3bKxrAl6lYXj-cVEc9-24" value="&lt;div&gt;+&amp;nbsp; PhoneBook()&lt;/div&gt;&lt;div&gt;- ~PhoneBook()&lt;/div&gt;&lt;div&gt;+ getIndex() :&lt;span style=&quot;white-space: pre;&quot;&gt;&#x9;&lt;/span&gt;size_t&lt;/div&gt;+ add() : void&lt;div&gt;+ searchContact(int new_index) : void&lt;/div&gt;&lt;div&gt;+ print _columns(std::string str) : void&lt;/div&gt;&lt;div&gt;+ print_table() : void&amp;nbsp;&lt;/div&gt;&lt;div&gt;+ exit (): void&amp;nbsp;&lt;/div&gt;" style="text;strokeColor=#36393d;fillColor=#eeeeee;align=left;verticalAlign=top;spacingLeft=4;spacingRight=4;overflow=hidden;rotatable=0;points=[[0,0.5],[1,0.5]];portConstraint=eastwest;whiteSpace=wrap;html=1;" vertex="1" parent="v-3bKxrAl6lYXj-cVEc9-21">
          <mxGeometry y="118" width="280" height="142" as="geometry" />
        </mxCell>
        <mxCell id="v-3bKxrAl6lYXj-cVEc9-43" value="&lt;p style=&quot;margin:0px;margin-top:4px;text-align:center;text-decoration:underline;&quot;&gt;&lt;b&gt;phone_book:PhoneBook&lt;/b&gt;&lt;/p&gt;&lt;hr size=&quot;1&quot; style=&quot;border-style:solid;&quot;&gt;&lt;p style=&quot;margin:0px;margin-left:8px;&quot;&gt;&lt;br&gt;&lt;/p&gt;&lt;p style=&quot;margin:0px;margin-left:8px;&quot;&gt;&amp;nbsp; _index= 1&lt;br&gt;&amp;nbsp; _max_size = 8&lt;br&gt;&lt;/p&gt;&lt;p style=&quot;margin:0px;margin-left:8px;&quot;&gt;&lt;br&gt;&lt;/p&gt;&lt;p style=&quot;margin:0px;margin-left:8px;&quot;&gt;&lt;br&gt;&lt;/p&gt;&lt;p style=&quot;margin:0px;margin-left:8px;&quot;&gt;&amp;nbsp; _contacts = [0]&lt;/p&gt;&lt;blockquote style=&quot;margin:0px;margin-left:8px;&quot;&gt;&lt;br&gt;&lt;/blockquote&gt;" style="verticalAlign=top;align=left;overflow=fill;html=1;whiteSpace=wrap;fillColor=#cdeb8b;strokeColor=#36393d;" vertex="1" parent="1">
          <mxGeometry x="310" y="650" width="160" height="130" as="geometry" />
        </mxCell>
        <mxCell id="U2_EYNBquKu6W52dclof-2" style="edgeStyle=orthogonalEdgeStyle;rounded=0;orthogonalLoop=1;jettySize=auto;html=1;exitX=1;exitY=0.5;exitDx=0;exitDy=0;entryX=0;entryY=0.167;entryDx=0;entryDy=0;entryPerimeter=0;" edge="1" parent="1" source="v-3bKxrAl6lYXj-cVEc9-2" target="v-3bKxrAl6lYXj-cVEc9-22">
          <mxGeometry relative="1" as="geometry" />
        </mxCell>
        <mxCell id="U2_EYNBquKu6W52dclof-3" value="&amp;lt;&amp;nbsp; Has-a&amp;nbsp; &amp;lt;" style="text;html=1;align=center;verticalAlign=middle;resizable=0;points=[];autosize=1;strokeColor=none;fillColor=none;" vertex="1" parent="1">
          <mxGeometry x="370" y="298" width="80" height="30" as="geometry" />
        </mxCell>
        <mxCell id="U2_EYNBquKu6W52dclof-10" value="&lt;p style=&quot;margin:0px;margin-top:4px;text-align:center;text-decoration:underline;&quot;&gt;&lt;b&gt;Contact_1t: Contact&lt;/b&gt;&lt;/p&gt;&lt;hr size=&quot;1&quot; style=&quot;border-style:solid;&quot;&gt;&lt;p style=&quot;margin:0px;margin-left:8px;&quot;&gt;- first_name : string&amp;nbsp;&lt;/p&gt;&lt;div&gt;&amp;nbsp; - phone_number : string&lt;/div&gt;&lt;div&gt;&amp;nbsp; - last_name : string&lt;/div&gt;&lt;div&gt;&amp;nbsp; - nickname : string&lt;/div&gt;&lt;div&gt;&amp;nbsp; -darkest_secret : string&lt;/div&gt;&lt;div&gt;&lt;br&gt;&lt;/div&gt;&lt;div&gt;&lt;br&gt;&lt;/div&gt;" style="verticalAlign=top;align=left;overflow=fill;html=1;whiteSpace=wrap;fillColor=#cce5ff;strokeColor=#36393d;" vertex="1" parent="1">
          <mxGeometry x="20" y="880" width="160" height="110" as="geometry" />
        </mxCell>
        <mxCell id="g4ldJlV_0S99kWFhOa4M-6" value="&lt;p style=&quot;margin:0px;margin-top:4px;text-align:center;text-decoration:underline;&quot;&gt;&lt;b&gt;Contact_2: Contact&lt;/b&gt;&lt;/p&gt;&lt;hr size=&quot;1&quot; style=&quot;border-style:solid;&quot;&gt;&lt;p style=&quot;margin:0px;margin-left:8px;&quot;&gt;- first_name : string&amp;nbsp;&lt;/p&gt;&lt;div&gt;&amp;nbsp; - phone_number : string&lt;/div&gt;&lt;div&gt;&amp;nbsp; - last_name : string&lt;/div&gt;&lt;div&gt;&amp;nbsp; - nickname : string&lt;/div&gt;&lt;div&gt;&amp;nbsp; -darkest_secret : string&lt;/div&gt;&lt;div&gt;&lt;br&gt;&lt;/div&gt;&lt;div&gt;&lt;br&gt;&lt;/div&gt;" style="verticalAlign=top;align=left;overflow=fill;html=1;whiteSpace=wrap;fillColor=#cce5ff;strokeColor=#36393d;" vertex="1" parent="1">
          <mxGeometry x="200" y="880" width="160" height="110" as="geometry" />
        </mxCell>
        <mxCell id="g4ldJlV_0S99kWFhOa4M-7" value="&lt;p style=&quot;margin:0px;margin-top:4px;text-align:center;text-decoration:underline;&quot;&gt;&lt;b&gt;Contact_3: Contact&lt;/b&gt;&lt;/p&gt;&lt;hr size=&quot;1&quot; style=&quot;border-style:solid;&quot;&gt;&lt;p style=&quot;margin:0px;margin-left:8px;&quot;&gt;- first_name : string&amp;nbsp;&lt;/p&gt;&lt;div&gt;&amp;nbsp; - phone_number : string&lt;/div&gt;&lt;div&gt;&amp;nbsp; - last_name : string&lt;/div&gt;&lt;div&gt;&amp;nbsp; - nickname : string&lt;/div&gt;&lt;div&gt;&amp;nbsp; -darkest_secret : string&lt;/div&gt;&lt;div&gt;&lt;br&gt;&lt;/div&gt;&lt;div&gt;&lt;br&gt;&lt;/div&gt;" style="verticalAlign=top;align=left;overflow=fill;html=1;whiteSpace=wrap;fillColor=#cce5ff;strokeColor=#36393d;" vertex="1" parent="1">
          <mxGeometry x="380" y="880" width="160" height="110" as="geometry" />
        </mxCell>
        <mxCell id="E5fSBktUwOD5KanE1q1Q-19" value="&lt;u&gt;[Array de 8 objetos]&lt;/u&gt;" style="text;html=1;align=center;verticalAlign=middle;resizable=0;points=[];autosize=1;strokeColor=none;fillColor=none;fontSize=9;" vertex="1" parent="1">
          <mxGeometry x="290" y="820" width="100" height="20" as="geometry" />
        </mxCell>
        <mxCell id="E5fSBktUwOD5KanE1q1Q-20" value="&lt;p style=&quot;margin:0px;margin-top:4px;text-align:center;text-decoration:underline;&quot;&gt;&lt;b&gt;Contact_4: Contact&lt;/b&gt;&lt;/p&gt;&lt;hr size=&quot;1&quot; style=&quot;border-style:solid;&quot;&gt;&lt;p style=&quot;margin:0px;margin-left:8px;&quot;&gt;- first_name : string&amp;nbsp;&lt;/p&gt;&lt;div&gt;&amp;nbsp; - phone_number : string&lt;/div&gt;&lt;div&gt;&amp;nbsp; - last_name : string&lt;/div&gt;&lt;div&gt;&amp;nbsp; - nickname : string&lt;/div&gt;&lt;div&gt;&amp;nbsp; -darkest_secret : string&lt;/div&gt;&lt;div&gt;&lt;br&gt;&lt;/div&gt;&lt;div&gt;&lt;br&gt;&lt;/div&gt;" style="verticalAlign=top;align=left;overflow=fill;html=1;whiteSpace=wrap;fillColor=#cce5ff;strokeColor=#36393d;" vertex="1" parent="1">
          <mxGeometry x="560" y="880" width="160" height="110" as="geometry" />
        </mxCell>
        <mxCell id="E5fSBktUwOD5KanE1q1Q-24" value="" style="shape=partialRectangle;whiteSpace=wrap;html=1;bottom=0;right=0;fillColor=none;rotation=-180;" vertex="1" parent="1">
          <mxGeometry x="120" y="780" width="270" height="60" as="geometry" />
        </mxCell>
        <mxCell id="E5fSBktUwOD5KanE1q1Q-30" value="" style="endArrow=none;html=1;rounded=0;exitX=0;exitY=0;exitDx=0;exitDy=0;" edge="1" parent="1" source="E5fSBktUwOD5KanE1q1Q-24">
          <mxGeometry width="50" height="50" relative="1" as="geometry">
            <mxPoint x="460" y="835" as="sourcePoint" />
            <mxPoint x="640" y="840" as="targetPoint" />
          </mxGeometry>
        </mxCell>
        <mxCell id="E5fSBktUwOD5KanE1q1Q-31" value="" style="endArrow=classic;html=1;rounded=0;entryX=0.5;entryY=0;entryDx=0;entryDy=0;" edge="1" parent="1" target="E5fSBktUwOD5KanE1q1Q-20">
          <mxGeometry width="50" height="50" relative="1" as="geometry">
            <mxPoint x="640" y="840" as="sourcePoint" />
            <mxPoint x="645" y="850" as="targetPoint" />
          </mxGeometry>
        </mxCell>
        <mxCell id="E5fSBktUwOD5KanE1q1Q-32" value="" style="endArrow=classic;html=1;rounded=0;entryX=0.5;entryY=0;entryDx=0;entryDy=0;" edge="1" parent="1">
          <mxGeometry width="50" height="50" relative="1" as="geometry">
            <mxPoint x="120" y="840" as="sourcePoint" />
            <mxPoint x="120" y="880" as="targetPoint" />
          </mxGeometry>
        </mxCell>
        <mxCell id="E5fSBktUwOD5KanE1q1Q-33" value="" style="endArrow=classic;html=1;rounded=0;entryX=0.5;entryY=0;entryDx=0;entryDy=0;" edge="1" parent="1">
          <mxGeometry width="50" height="50" relative="1" as="geometry">
            <mxPoint x="279.71000000000004" y="840" as="sourcePoint" />
            <mxPoint x="279.71000000000004" y="880" as="targetPoint" />
          </mxGeometry>
        </mxCell>
        <mxCell id="E5fSBktUwOD5KanE1q1Q-34" value="" style="endArrow=classic;html=1;rounded=0;entryX=0.5;entryY=0;entryDx=0;entryDy=0;" edge="1" parent="1">
          <mxGeometry width="50" height="50" relative="1" as="geometry">
            <mxPoint x="459.71000000000004" y="840" as="sourcePoint" />
            <mxPoint x="459.71000000000004" y="880" as="targetPoint" />
          </mxGeometry>
        </mxCell>
        <mxCell id="ops4TEsEZXX23pgfn7C1-2" value="" style="verticalLabelPosition=bottom;verticalAlign=top;html=1;shape=mxgraph.basic.rect;fillColor2=none;strokeWidth=1;size=20;indent=5;shadow=0;fillColor=none;" vertex="1" parent="1">
          <mxGeometry x="320" y="750" width="120" height="20" as="geometry" />
        </mxCell>
      </root>
    </mxGraphModel>
  </diagram>
  <diagram id="Yp_TXYJOQdWTY3IbUfwL" name="Page-2">
    <mxGraphModel dx="1031" dy="983" grid="1" gridSize="10" guides="1" tooltips="1" connect="1" arrows="1" fold="1" page="1" pageScale="1" pageWidth="850" pageHeight="1100" math="0" shadow="0">
      <root>
        <mxCell id="0" />
        <mxCell id="1" parent="0" />
      </root>
    </mxGraphModel>
  </diagram>
</mxfile>
